<?xml version="1.0" encoding="UTF-8"?><svg xmlns="http://www.w3.org/2000/svg" xmlns:xlink="http://www.w3.org/1999/xlink" fill-opacity="1" color-rendering="auto" color-interpolation="auto" text-rendering="auto" stroke="black" stroke-linecap="square" width="1397" stroke-miterlimit="10" shape-rendering="auto" stroke-opacity="1" fill="black" stroke-dasharray="none" font-weight="normal" stroke-width="1" height="995" font-family="'Dialog'" font-style="normal" stroke-linejoin="miter" font-size="12px" stroke-dashoffset="0" image-rendering="auto">
  <!--Generated by ySVG 2.6-->
  <defs id="genericDefs"/>
  <g>
    <defs id="defs1">
      <clipPath clipPathUnits="userSpaceOnUse" id="clipPath1">
        <path d="M0 0 L1397 0 L1397 995 L0 995 L0 0 Z"/>
      </clipPath>
      <clipPath clipPathUnits="userSpaceOnUse" id="clipPath2">
        <path d="M632 165 L2029 165 L2029 1160 L632 1160 L632 165 Z"/>
      </clipPath>
      <clipPath clipPathUnits="userSpaceOnUse" id="clipPath3">
        <path d="M135.6699 -185.6494 L135.6699 1211.3506 L-859.3301 1211.3506 L-859.3301 -185.6494 L135.6699 -185.6494 Z"/>
      </clipPath>
      <clipPath clipPathUnits="userSpaceOnUse" id="clipPath4">
        <path d="M139.3438 -230.2894 L139.3438 1166.7106 L-855.6562 1166.7106 L-855.6562 -230.2894 L139.3438 -230.2894 Z"/>
      </clipPath>
      <clipPath clipPathUnits="userSpaceOnUse" id="clipPath5">
        <path d="M138.6787 -275.2894 L138.6787 1121.7106 L-856.3213 1121.7106 L-856.3213 -275.2894 L138.6787 -275.2894 Z"/>
      </clipPath>
      <clipPath clipPathUnits="userSpaceOnUse" id="clipPath6">
        <path d="M665.6699 -110.4694 L665.6699 1286.5306 L-329.3301 1286.5306 L-329.3301 -110.4694 L665.6699 -110.4694 Z"/>
      </clipPath>
      <clipPath clipPathUnits="userSpaceOnUse" id="clipPath7">
        <path d="M669.3438 -155.1094 L669.3438 1241.8906 L-325.6562 1241.8906 L-325.6562 -155.1094 L669.3438 -155.1094 Z"/>
      </clipPath>
      <clipPath clipPathUnits="userSpaceOnUse" id="clipPath8">
        <path d="M668.6787 -200.1094 L668.6787 1196.8906 L-326.3213 1196.8906 L-326.3213 -200.1094 L668.6787 -200.1094 Z"/>
      </clipPath>
    </defs>
    <g fill="white" text-rendering="geometricPrecision" shape-rendering="geometricPrecision" transform="translate(-632,-165)" stroke="white">
      <rect x="632" width="1397" height="995" y="165" clip-path="url(#clipPath2)" stroke="none"/>
    </g>
    <g fill="rgb(209,216,190)" text-rendering="geometricPrecision" shape-rendering="geometricPrecision" transform="matrix(1,0,0,1,-632,-165)" stroke="rgb(209,216,190)">
      <rect x="736.82" width="1276.96" height="510" y="180" clip-path="url(#clipPath2)" stroke="none"/>
    </g>
    <g text-rendering="geometricPrecision" stroke-miterlimit="1.45" shape-rendering="geometricPrecision" transform="matrix(1,0,0,1,-632,-165)" stroke-linecap="butt">
      <rect fill="none" x="736.82" width="1276.96" height="510" y="180" clip-path="url(#clipPath2)"/>
    </g>
    <g fill="rgb(129,154,145)" text-rendering="geometricPrecision" shape-rendering="geometricPrecision" transform="matrix(1,0,0,1,-632,-165)" stroke="rgb(129,154,145)">
      <rect x="766.82" width="810" height="375" y="210" clip-path="url(#clipPath2)" stroke="none"/>
    </g>
    <g text-rendering="geometricPrecision" stroke-miterlimit="1.45" shape-rendering="geometricPrecision" transform="matrix(1,0,0,1,-632,-165)" stroke-linecap="butt">
      <rect fill="none" x="766.82" width="810" height="375" y="210" clip-path="url(#clipPath2)"/>
    </g>
    <g fill="rgb(167,193,168)" text-rendering="geometricPrecision" shape-rendering="geometricPrecision" transform="matrix(1,0,0,1,-632,-165)" stroke="rgb(167,193,168)">
      <rect x="1231.82" width="315" height="240" y="240" clip-path="url(#clipPath2)" stroke="none"/>
    </g>
    <g text-rendering="geometricPrecision" stroke-miterlimit="1.45" shape-rendering="geometricPrecision" transform="matrix(1,0,0,1,-632,-165)" stroke-linecap="butt">
      <rect fill="none" x="1231.82" width="315" height="240" y="240" clip-path="url(#clipPath2)"/>
    </g>
    <g fill="rgb(167,193,168)" text-rendering="geometricPrecision" shape-rendering="geometricPrecision" transform="matrix(1,0,0,1,-632,-165)" stroke="rgb(167,193,168)">
      <rect x="796.82" width="420" height="240" y="240" clip-path="url(#clipPath2)" stroke="none"/>
    </g>
    <g text-rendering="geometricPrecision" stroke-miterlimit="1.45" shape-rendering="geometricPrecision" transform="matrix(1,0,0,1,-632,-165)" stroke-linecap="butt">
      <rect fill="none" x="796.82" width="420" height="240" y="240" clip-path="url(#clipPath2)"/>
    </g>
    <g fill="rgb(238,239,224)" text-rendering="geometricPrecision" shape-rendering="geometricPrecision" transform="matrix(1,0,0,1,-632,-165)" stroke="rgb(238,239,224)">
      <rect x="796.82" width="750" height="45" y="510" clip-path="url(#clipPath2)" stroke="none"/>
    </g>
    <g text-rendering="geometricPrecision" stroke-miterlimit="1.45" shape-rendering="geometricPrecision" transform="matrix(1,0,0,1,-632,-165)" stroke-linecap="butt">
      <rect fill="none" x="796.82" width="750" height="45" y="510" clip-path="url(#clipPath2)"/>
      <text x="1132.4655" xml:space="preserve" y="529.8633" clip-path="url(#clipPath2)" font-family="sans-serif" stroke="none">Gecombineerd</text>
      <text x="1156.4772" xml:space="preserve" y="544.5645" clip-path="url(#clipPath2)" font-family="sans-serif" stroke="none">Vak 1</text>
    </g>
    <g fill="rgb(238,239,224)" text-rendering="geometricPrecision" shape-rendering="geometricPrecision" transform="matrix(1,0,0,1,-632,-165)" stroke="rgb(238,239,224)">
      <rect x="812" width="30" height="60" y="255" clip-path="url(#clipPath2)" stroke="none"/>
    </g>
    <g text-rendering="geometricPrecision" stroke-miterlimit="1.45" shape-rendering="geometricPrecision" transform="matrix(1,0,0,1,-632,-165)" stroke-linecap="butt">
      <rect fill="none" x="812" width="30" height="60" y="255" clip-path="url(#clipPath2)"/>
    </g>
    <g text-rendering="geometricPrecision" stroke-miterlimit="1.45" shape-rendering="geometricPrecision" font-family="sans-serif" transform="matrix(-0,-1,1,-0,185.6494,135.6699)" stroke-linecap="butt">
      <text x="2" xml:space="preserve" y="14.0645" clip-path="url(#clipPath3)" stroke="none">Uplift</text>
    </g>
    <g fill="rgb(238,239,224)" text-rendering="geometricPrecision" shape-rendering="geometricPrecision" transform="matrix(1,0,0,1,-632,-165)" stroke="rgb(238,239,224)">
      <rect x="856.64" width="30" height="60" y="255" clip-path="url(#clipPath2)" stroke="none"/>
    </g>
    <g text-rendering="geometricPrecision" stroke-miterlimit="1.45" shape-rendering="geometricPrecision" transform="matrix(1,0,0,1,-632,-165)" stroke-linecap="butt">
      <rect fill="none" x="856.64" width="30" height="60" y="255" clip-path="url(#clipPath2)"/>
    </g>
    <g text-rendering="geometricPrecision" stroke-miterlimit="1.45" shape-rendering="geometricPrecision" font-family="sans-serif" transform="matrix(-0,-1,1,-0,230.2894,139.3438)" stroke-linecap="butt">
      <text x="2" xml:space="preserve" y="14.0645" clip-path="url(#clipPath4)" stroke="none">Heave</text>
    </g>
    <g fill="rgb(238,239,224)" text-rendering="geometricPrecision" shape-rendering="geometricPrecision" transform="matrix(1,0,0,1,-632,-165)" stroke="rgb(238,239,224)">
      <rect x="901.64" width="30" height="60" y="255" clip-path="url(#clipPath2)" stroke="none"/>
    </g>
    <g text-rendering="geometricPrecision" stroke-miterlimit="1.45" shape-rendering="geometricPrecision" transform="matrix(1,0,0,1,-632,-165)" stroke-linecap="butt">
      <rect fill="none" x="901.64" width="30" height="60" y="255" clip-path="url(#clipPath2)"/>
    </g>
    <g text-rendering="geometricPrecision" stroke-miterlimit="1.45" shape-rendering="geometricPrecision" font-family="sans-serif" transform="matrix(-0,-1,1,-0,275.2894,138.6787)" stroke-linecap="butt">
      <text x="2" xml:space="preserve" y="14.0645" clip-path="url(#clipPath5)" stroke="none">Piping</text>
    </g>
    <g fill="rgb(238,239,224)" text-rendering="geometricPrecision" shape-rendering="geometricPrecision" transform="matrix(1,0,0,1,-632,-165)" stroke="rgb(238,239,224)">
      <rect x="811.64" width="120" height="45" y="345" clip-path="url(#clipPath2)" stroke="none"/>
    </g>
    <g text-rendering="geometricPrecision" stroke-miterlimit="1.45" shape-rendering="geometricPrecision" transform="matrix(1,0,0,1,-632,-165)" stroke-linecap="butt">
      <rect fill="none" x="811.64" width="120" height="45" y="345" clip-path="url(#clipPath2)"/>
      <text x="832.2855" xml:space="preserve" y="364.8633" clip-path="url(#clipPath2)" font-family="sans-serif" stroke="none">Gecombineerd</text>
      <text x="842.9554" xml:space="preserve" y="379.5645" clip-path="url(#clipPath2)" font-family="sans-serif" stroke="none">Scenario 1</text>
    </g>
    <g fill="rgb(238,239,224)" text-rendering="geometricPrecision" shape-rendering="geometricPrecision" transform="matrix(1,0,0,1,-632,-165)" stroke="rgb(238,239,224)">
      <rect x="812" width="389.64" height="45" y="420" clip-path="url(#clipPath2)" stroke="none"/>
    </g>
    <g text-rendering="geometricPrecision" stroke-miterlimit="1.45" shape-rendering="geometricPrecision" transform="matrix(1,0,0,1,-632,-165)" stroke-linecap="butt">
      <rect fill="none" x="812" width="389.64" height="45" y="420" clip-path="url(#clipPath2)"/>
      <text x="967.4655" xml:space="preserve" y="439.8633" clip-path="url(#clipPath2)" font-family="sans-serif" stroke="none">Gecombineerd</text>
      <text x="969.1296" xml:space="preserve" y="454.5645" clip-path="url(#clipPath2)" font-family="sans-serif" stroke="none">Uittredepunt 1</text>
    </g>
    <g fill="rgb(238,239,224)" text-rendering="geometricPrecision" shape-rendering="geometricPrecision" transform="matrix(1,0,0,1,-632,-165)" stroke="rgb(238,239,224)">
      <rect x="946.64" width="255" height="45" y="345" clip-path="url(#clipPath2)" stroke="none"/>
    </g>
    <g text-rendering="geometricPrecision" stroke-miterlimit="1.45" shape-rendering="geometricPrecision" transform="matrix(1,0,0,1,-632,-165)" stroke-linecap="butt">
      <rect fill="none" x="946.64" width="255" height="45" y="345" clip-path="url(#clipPath2)"/>
      <text x="1034.7855" xml:space="preserve" y="364.8633" clip-path="url(#clipPath2)" font-family="sans-serif" stroke="none">Gecombineerd</text>
      <text x="1044.4594" xml:space="preserve" y="379.5645" clip-path="url(#clipPath2)" font-family="sans-serif" stroke="none">Scenario N</text>
      <text x="1111.9519" font-size="15px" y="258.4556" clip-path="url(#clipPath2)" font-family="sans-serif" stroke="none" font-weight="bold" xml:space="preserve">Uitredepunt 1</text>
    </g>
    <g fill="rgb(129,154,145)" text-rendering="geometricPrecision" shape-rendering="geometricPrecision" transform="matrix(1,0,0,1,-632,-165)" stroke="rgb(129,154,145)">
      <rect x="1600.3" width="180" height="375" y="210" clip-path="url(#clipPath2)" stroke="none"/>
    </g>
    <g text-rendering="geometricPrecision" stroke-miterlimit="1.45" shape-rendering="geometricPrecision" transform="matrix(1,0,0,1,-632,-165)" stroke-linecap="butt">
      <rect fill="none" x="1600.3" width="180" height="375" y="210" clip-path="url(#clipPath2)"/>
    </g>
    <g fill="rgb(238,239,224)" text-rendering="geometricPrecision" shape-rendering="geometricPrecision" transform="matrix(1,0,0,1,-632,-165)" stroke="rgb(238,239,224)">
      <rect x="1246.82" width="285" height="45" y="420" clip-path="url(#clipPath2)" stroke="none"/>
    </g>
    <g text-rendering="geometricPrecision" stroke-miterlimit="1.45" shape-rendering="geometricPrecision" transform="matrix(1,0,0,1,-632,-165)" stroke-linecap="butt">
      <rect fill="none" x="1246.82" width="285" height="45" y="420" clip-path="url(#clipPath2)"/>
      <text x="1349.9655" xml:space="preserve" y="439.8633" clip-path="url(#clipPath2)" font-family="sans-serif" stroke="none">Gecombineerd</text>
      <text x="1350.6334" xml:space="preserve" y="454.5645" clip-path="url(#clipPath2)" font-family="sans-serif" stroke="none">Uittredepunt N</text>
    </g>
    <g fill="rgb(238,239,224)" text-rendering="geometricPrecision" shape-rendering="geometricPrecision" transform="matrix(1,0,0,1,-632,-165)" stroke="rgb(238,239,224)">
      <rect x="1630.3" width="120" height="45" y="510" clip-path="url(#clipPath2)" stroke="none"/>
    </g>
    <g text-rendering="geometricPrecision" stroke-miterlimit="1.45" shape-rendering="geometricPrecision" transform="matrix(1,0,0,1,-632,-165)" stroke-linecap="butt">
      <rect fill="none" x="1630.3" width="120" height="45" y="510" clip-path="url(#clipPath2)"/>
      <text x="1650.9456" xml:space="preserve" y="529.8633" clip-path="url(#clipPath2)" font-family="sans-serif" stroke="none">Gecombineerd</text>
      <text x="1674.9573" xml:space="preserve" y="544.5645" clip-path="url(#clipPath2)" font-family="sans-serif" stroke="none">Vak 2</text>
    </g>
    <g fill="rgb(129,154,145)" text-rendering="geometricPrecision" shape-rendering="geometricPrecision" transform="matrix(1,0,0,1,-632,-165)" stroke="rgb(129,154,145)">
      <rect x="1803.78" width="180" height="375" y="210" clip-path="url(#clipPath2)" stroke="none"/>
    </g>
    <g text-rendering="geometricPrecision" stroke-miterlimit="1.45" shape-rendering="geometricPrecision" transform="matrix(1,0,0,1,-632,-165)" stroke-linecap="butt">
      <rect fill="none" x="1803.78" width="180" height="375" y="210" clip-path="url(#clipPath2)"/>
    </g>
    <g fill="rgb(238,239,224)" text-rendering="geometricPrecision" shape-rendering="geometricPrecision" transform="matrix(1,0,0,1,-632,-165)" stroke="rgb(238,239,224)">
      <rect x="1833.78" width="120" height="45" y="510" clip-path="url(#clipPath2)" stroke="none"/>
    </g>
    <g text-rendering="geometricPrecision" stroke-miterlimit="1.45" shape-rendering="geometricPrecision" transform="matrix(1,0,0,1,-632,-165)" stroke-linecap="butt">
      <rect fill="none" x="1833.78" width="120" height="45" y="510" clip-path="url(#clipPath2)"/>
      <text x="1854.4255" xml:space="preserve" y="529.8633" clip-path="url(#clipPath2)" font-family="sans-serif" stroke="none">Gecombineerd</text>
      <text x="1877.4412" xml:space="preserve" y="544.5645" clip-path="url(#clipPath2)" font-family="sans-serif" stroke="none">Vak N</text>
    </g>
    <g fill="rgb(238,239,224)" text-rendering="geometricPrecision" shape-rendering="geometricPrecision" transform="matrix(1,0,0,1,-632,-165)" stroke="rgb(238,239,224)">
      <rect x="796.82" width="1186.96" height="45" y="615" clip-path="url(#clipPath2)" stroke="none"/>
    </g>
    <g text-rendering="geometricPrecision" stroke-miterlimit="1.45" shape-rendering="geometricPrecision" transform="matrix(1,0,0,1,-632,-165)" stroke-linecap="butt">
      <rect fill="none" x="796.82" width="1186.96" height="45" y="615" clip-path="url(#clipPath2)"/>
      <text x="1350.9456" xml:space="preserve" y="634.8633" clip-path="url(#clipPath2)" font-family="sans-serif" stroke="none">Gecombineerd</text>
      <text x="1371.9631" xml:space="preserve" y="649.5645" clip-path="url(#clipPath2)" font-family="sans-serif" stroke="none">Traject</text>
      <text x="1530.2466" font-size="15px" y="228.4556" clip-path="url(#clipPath2)" font-family="sans-serif" stroke="none" font-weight="bold" xml:space="preserve">Vak 1</text>
      <text x="1440.7068" font-size="15px" y="258.4556" clip-path="url(#clipPath2)" font-family="sans-serif" stroke="none" font-weight="bold" xml:space="preserve">Uitredepunt N</text>
      <text x="1733.7266" font-size="15px" y="228.4556" clip-path="url(#clipPath2)" font-family="sans-serif" stroke="none" font-weight="bold" xml:space="preserve">Vak 2</text>
      <text x="1935.9615" font-size="15px" y="228.4556" clip-path="url(#clipPath2)" font-family="sans-serif" stroke="none" font-weight="bold" xml:space="preserve">Vak N</text>
      <text x="1956.8867" font-size="15px" y="198.4556" clip-path="url(#clipPath2)" font-family="sans-serif" stroke="none" font-weight="bold" xml:space="preserve">Traject</text>
    </g>
    <g fill="rgb(238,239,224)" text-rendering="geometricPrecision" shape-rendering="geometricPrecision" transform="matrix(1,0,0,1,-632,-165)" stroke="rgb(238,239,224)">
      <rect x="736.82" width="30" height="60" y="785" clip-path="url(#clipPath2)" stroke="none"/>
    </g>
    <g text-rendering="geometricPrecision" stroke-miterlimit="1.45" shape-rendering="geometricPrecision" transform="matrix(1,0,0,1,-632,-165)" stroke-linecap="butt">
      <rect fill="none" x="736.82" width="30" height="60" y="785" clip-path="url(#clipPath2)"/>
    </g>
    <g text-rendering="geometricPrecision" stroke-miterlimit="1.45" shape-rendering="geometricPrecision" font-family="sans-serif" transform="matrix(-0,-1,1,-0,110.4694,665.6699)" stroke-linecap="butt">
      <text x="2" xml:space="preserve" y="14.0645" clip-path="url(#clipPath6)" stroke="none">Uplift</text>
    </g>
    <g fill="rgb(238,239,224)" text-rendering="geometricPrecision" shape-rendering="geometricPrecision" transform="matrix(1,0,0,1,-632,-165)" stroke="rgb(238,239,224)">
      <rect x="781.46" width="30" height="60" y="785" clip-path="url(#clipPath2)" stroke="none"/>
    </g>
    <g text-rendering="geometricPrecision" stroke-miterlimit="1.45" shape-rendering="geometricPrecision" transform="matrix(1,0,0,1,-632,-165)" stroke-linecap="butt">
      <rect fill="none" x="781.46" width="30" height="60" y="785" clip-path="url(#clipPath2)"/>
    </g>
    <g text-rendering="geometricPrecision" stroke-miterlimit="1.45" shape-rendering="geometricPrecision" font-family="sans-serif" transform="matrix(-0,-1,1,-0,155.1094,669.3438)" stroke-linecap="butt">
      <text x="2" xml:space="preserve" y="14.0645" clip-path="url(#clipPath7)" stroke="none">Heave</text>
    </g>
    <g fill="rgb(238,239,224)" text-rendering="geometricPrecision" shape-rendering="geometricPrecision" transform="matrix(1,0,0,1,-632,-165)" stroke="rgb(238,239,224)">
      <rect x="826.46" width="30" height="60" y="785" clip-path="url(#clipPath2)" stroke="none"/>
    </g>
    <g text-rendering="geometricPrecision" stroke-miterlimit="1.45" shape-rendering="geometricPrecision" transform="matrix(1,0,0,1,-632,-165)" stroke-linecap="butt">
      <rect fill="none" x="826.46" width="30" height="60" y="785" clip-path="url(#clipPath2)"/>
    </g>
    <g text-rendering="geometricPrecision" stroke-miterlimit="1.45" shape-rendering="geometricPrecision" font-family="sans-serif" transform="matrix(-0,-1,1,-0,200.1094,668.6787)" stroke-linecap="butt">
      <text x="2" xml:space="preserve" y="14.0645" clip-path="url(#clipPath8)" stroke="none">Piping</text>
    </g>
    <g text-rendering="geometricPrecision" stroke-miterlimit="1.45" shape-rendering="geometricPrecision" font-family="sans-serif" transform="matrix(1,0,0,1,-632,-165)" stroke-linecap="butt">
      <text x="961.0059" xml:space="preserve" y="819.7139" clip-path="url(#clipPath2)" stroke="none">FORM</text>
    </g>
    <g fill="rgb(238,239,224)" text-rendering="geometricPrecision" shape-rendering="geometricPrecision" transform="matrix(1,0,0,1,-632,-165)" stroke="rgb(238,239,224)">
      <rect x="736.46" width="120" height="45" y="875" clip-path="url(#clipPath2)" stroke="none"/>
    </g>
    <g text-rendering="geometricPrecision" stroke-miterlimit="1.45" shape-rendering="geometricPrecision" transform="matrix(1,0,0,1,-632,-165)" stroke-linecap="butt">
      <rect fill="none" x="736.46" width="120" height="45" y="875" clip-path="url(#clipPath2)"/>
      <text x="757.1055" xml:space="preserve" y="894.8633" clip-path="url(#clipPath2)" font-family="sans-serif" stroke="none">Gecombineerd</text>
      <text x="767.7755" xml:space="preserve" y="909.5645" clip-path="url(#clipPath2)" font-family="sans-serif" stroke="none">Scenario 1</text>
    </g>
    <g fill="rgb(238,239,224)" text-rendering="geometricPrecision" shape-rendering="geometricPrecision" transform="matrix(1,0,0,1,-632,-165)" stroke="rgb(238,239,224)">
      <rect x="736.46" width="120" height="45" y="950" clip-path="url(#clipPath2)" stroke="none"/>
    </g>
    <g text-rendering="geometricPrecision" stroke-miterlimit="1.45" shape-rendering="geometricPrecision" transform="matrix(1,0,0,1,-632,-165)" stroke-linecap="butt">
      <rect fill="none" x="736.46" width="120" height="45" y="950" clip-path="url(#clipPath2)"/>
      <text x="757.1055" xml:space="preserve" y="969.8633" clip-path="url(#clipPath2)" font-family="sans-serif" stroke="none">Gecombineerd</text>
      <text x="758.7696" xml:space="preserve" y="984.5645" clip-path="url(#clipPath2)" font-family="sans-serif" stroke="none">Uittredepunt 1</text>
      <text x="961.0035" xml:space="preserve" y="969.8633" clip-path="url(#clipPath2)" font-family="sans-serif" stroke="none">Beta volgt uit sommatie van scenario</text>
      <text x="961.0035" xml:space="preserve" y="984.5645" clip-path="url(#clipPath2)" font-family="sans-serif" stroke="none">kansen maal de faalkans</text>
      <text x="1263.5276" y="969.8633" clip-path="url(#clipPath2)" fill="red" font-family="sans-serif" stroke="none" xml:space="preserve">Alpha's volgen uit meest</text>
      <text x="1263.5276" y="984.5645" clip-path="url(#clipPath2)" fill="red" font-family="sans-serif" stroke="none" xml:space="preserve">ongunstige scenario</text>
      <text x="961.1343" xml:space="preserve" y="894.8633" clip-path="url(#clipPath2)" font-family="sans-serif" stroke="none">Importance Sampling o.b.v.</text>
      <text x="961.1343" xml:space="preserve" y="909.5645" clip-path="url(#clipPath2)" font-family="sans-serif" stroke="none">Design Points FORM</text>
      <text x="1263.1868" y="887.5127" clip-path="url(#clipPath2)" fill="red" font-family="sans-serif" stroke="none" xml:space="preserve">Huidig issue: </text>
      <text x="1263.1868" y="902.2139" clip-path="url(#clipPath2)" fill="red" font-family="sans-serif" stroke="none" xml:space="preserve">Bijbehorende Alpha's zijn</text>
      <text x="1263.1868" y="916.915" clip-path="url(#clipPath2)" fill="red" font-family="sans-serif" stroke="none" xml:space="preserve">niet gelijk aan 1.00</text>
    </g>
    <g fill="rgb(238,239,224)" text-rendering="geometricPrecision" shape-rendering="geometricPrecision" transform="matrix(1,0,0,1,-632,-165)" stroke="rgb(238,239,224)">
      <rect x="736.46" width="120" height="45" y="1025" clip-path="url(#clipPath2)" stroke="none"/>
    </g>
    <g text-rendering="geometricPrecision" stroke-miterlimit="1.45" shape-rendering="geometricPrecision" transform="matrix(1,0,0,1,-632,-165)" stroke-linecap="butt">
      <rect fill="none" x="736.46" width="120" height="45" y="1025" clip-path="url(#clipPath2)"/>
      <text x="757.1055" xml:space="preserve" y="1044.8633" clip-path="url(#clipPath2)" font-family="sans-serif" stroke="none">Gecombineerd</text>
      <text x="781.1172" xml:space="preserve" y="1059.5645" clip-path="url(#clipPath2)" font-family="sans-serif" stroke="none">Vak 1</text>
      <text x="960.9531" xml:space="preserve" y="1044.8633" clip-path="url(#clipPath2)" font-family="sans-serif" stroke="none">Beta volgt uit meest</text>
      <text x="960.9531" xml:space="preserve" y="1059.5645" clip-path="url(#clipPath2)" font-family="sans-serif" stroke="none">ongunstige uittredepunt</text>
      <text x="1263.5276" y="1044.8633" clip-path="url(#clipPath2)" fill="red" font-family="sans-serif" stroke="none" xml:space="preserve">Alpha's volgen uit meest</text>
      <text x="1263.5276" y="1059.5645" clip-path="url(#clipPath2)" fill="red" font-family="sans-serif" stroke="none" xml:space="preserve">ongunstige uittredepunt</text>
    </g>
    <g fill="rgb(238,239,224)" text-rendering="geometricPrecision" shape-rendering="geometricPrecision" transform="matrix(1,0,0,1,-632,-165)" stroke="rgb(238,239,224)">
      <rect x="736.46" width="120" height="45" y="1100" clip-path="url(#clipPath2)" stroke="none"/>
    </g>
    <g text-rendering="geometricPrecision" stroke-miterlimit="1.45" shape-rendering="geometricPrecision" transform="matrix(1,0,0,1,-632,-165)" stroke-linecap="butt">
      <rect fill="none" x="736.46" width="120" height="45" y="1100" clip-path="url(#clipPath2)"/>
      <text x="757.1055" xml:space="preserve" y="1119.8633" clip-path="url(#clipPath2)" font-family="sans-serif" stroke="none">Gecombineerd</text>
      <text x="778.1231" xml:space="preserve" y="1134.5645" clip-path="url(#clipPath2)" font-family="sans-serif" stroke="none">Traject</text>
      <text x="961.6956" xml:space="preserve" y="1119.8633" clip-path="url(#clipPath2)" font-family="sans-serif" stroke="none">Beta volgt uit meest</text>
      <text x="961.6956" xml:space="preserve" y="1134.5645" clip-path="url(#clipPath2)" font-family="sans-serif" stroke="none">ongunstige vak</text>
      <text x="1263.5276" y="1119.8633" clip-path="url(#clipPath2)" fill="red" font-family="sans-serif" stroke="none" xml:space="preserve">Alpha's volgen uit meest</text>
      <text x="1263.5276" y="1134.5645" clip-path="url(#clipPath2)" fill="red" font-family="sans-serif" stroke="none" xml:space="preserve">ongunstige vak</text>
      <text x="736.5298" font-size="15px" y="763.4556" clip-path="url(#clipPath2)" font-family="sans-serif" stroke="none" font-weight="bold" xml:space="preserve">Bepaling Beta's en Alpha's</text>
    </g>
    <g fill="rgb(153,204,0)" text-rendering="geometricPrecision" shape-rendering="geometricPrecision" transform="matrix(1,0,0,1,-632,-165)" stroke="rgb(153,204,0)">
      <circle r="15" clip-path="url(#clipPath2)" cx="844.9517" cy="442.5" stroke="none"/>
    </g>
    <g text-rendering="geometricPrecision" stroke-miterlimit="1.45" shape-rendering="geometricPrecision" transform="matrix(1,0,0,1,-632,-165)" stroke-linecap="butt">
      <circle fill="none" r="15" clip-path="url(#clipPath2)" cx="844.9517" cy="442.5"/>
      <text x="833.2739" xml:space="preserve" y="447.2139" clip-path="url(#clipPath2)" font-family="sans-serif" stroke="none">6.23</text>
    </g>
    <g fill="{{ scenarios.1.color }}" visibility="{{ scenarios.1.visibility }}" text-rendering="geometricPrecision" shape-rendering="geometricPrecision" transform="matrix(1,0,0,1,-632,-165)" stroke="rgb(153,204,0)">
      <circle r="15" clip-path="url(#clipPath2)" cx="922.2389" cy="381.3713" stroke="none"/>
    </g>
    <g text-rendering="geometricPrecision" visibility="{{ scenarios.1.visibility }}" stroke-miterlimit="1.45" shape-rendering="geometricPrecision" transform="matrix(1,0,0,1,-632,-165)" stroke-linecap="butt">
      <circle fill="none" r="15" clip-path="url(#clipPath2)" cx="922.2389" cy="381.3713"/>
      <text x="922.2389" xml:space="preserve" y="386.0852" clip-path="url(#clipPath2)" font-family="sans-serif" text-anchor="middle" stroke="none">{{ scenarios.1.beta }}</text>
    </g>
    <g fill="rgb(153,204,0)" visibility="{{ scenarios.2.visibility }}" text-rendering="geometricPrecision" shape-rendering="geometricPrecision" transform="matrix(1,0,0,1,-632,-165)" stroke="rgb(153,204,0)">
      <circle r="15" clip-path="url(#clipPath2)" cx="968.8675" cy="337" stroke="none"/>
    </g>
    <g text-rendering="geometricPrecision" visibility="{{ scenarios.2.visibility }}" stroke-miterlimit="1.45" shape-rendering="geometricPrecision" transform="matrix(1,0,0,1,-632,-165)" stroke-linecap="butt">
      <circle fill="none" r="15" clip-path="url(#clipPath2)" cx="968.8675" cy="337"/>
      <text x="957.1898" xml:space="preserve" y="341.7139" clip-path="url(#clipPath2)" font-family="sans-serif" stroke="none">6.23</text>
    </g>
    <g fill="rgb(153,204,0)" text-rendering="geometricPrecision" shape-rendering="geometricPrecision" transform="matrix(1,0,0,1,-632,-165)" stroke="rgb(153,204,0)">
      <circle r="15" clip-path="url(#clipPath2)" cx="1003.4152" cy="337" stroke="none"/>
    </g>
    <g text-rendering="geometricPrecision" stroke-miterlimit="1.45" shape-rendering="geometricPrecision" transform="matrix(1,0,0,1,-632,-165)" stroke-linecap="butt">
      <circle fill="none" r="15" clip-path="url(#clipPath2)" cx="1003.4152" cy="337"/>
      <text x="991.7375" xml:space="preserve" y="341.7139" clip-path="url(#clipPath2)" font-family="sans-serif" stroke="none">6.23</text>
    </g>
    <g fill="{{ piping.color }}" text-rendering="geometricPrecision" visibility="{{ piping.visibility }}" shape-rendering="geometricPrecision" transform="matrix(1,0,0,1,-632,-165)" stroke="rgb(153,204,0)">
      <circle r="15" clip-path="url(#clipPath2)" cx="931.64" cy="250.1265" stroke="none"/>
    </g>
    <g text-rendering="geometricPrecision" stroke-miterlimit="1.45" visibility="{{ piping.visibility }}" shape-rendering="geometricPrecision" transform="matrix(1,0,0,1,-632,-165)" stroke-linecap="butt">
      <circle fill="none" r="15" clip-path="url(#clipPath2)" cx="931.64" cy="250.1265"/>
      <text x="931.64" xml:space="preserve" y="254.8403" clip-path="url(#clipPath2)" font-family="sans-serif" text-anchor="middle" stroke="none">{{ piping.beta }}</text>
    </g>
    <g fill="{{ heave.color }}" text-rendering="geometricPrecision" visibility="{{ heave.visibility }}" shape-rendering="geometricPrecision" transform="matrix(1,0,0,1,-632,-165)" stroke="rgb(153,204,0)">
      <circle r="15" clip-path="url(#clipPath2)" cx="886.64" cy="250.1265" stroke="none"/>
    </g>
    <g text-rendering="geometricPrecision" visibility="{{ heave.visibility }}" stroke-miterlimit="1.45" shape-rendering="geometricPrecision" transform="matrix(1,0,0,1,-632,-165)" stroke-linecap="butt">
      <circle fill="none" r="15" clip-path="url(#clipPath2)" cx="886.64" cy="250.1265"/>
      <text x="886.64" xml:space="preserve" y="254.8403" clip-path="url(#clipPath2)" font-family="sans-serif" text-anchor="middle" stroke="none">{{ heave.beta }}</text>
    </g>
    <g fill="{{ uplift.color }}" visibility="{{ uplift.visibility }}" text-rendering="geometricPrecision" shape-rendering="geometricPrecision" transform="matrix(1,0,0,1,-632,-165)" stroke="rgb(153,204,0)">
      <circle r="15" clip-path="url(#clipPath2)" cx="841.64" cy="250.1265" stroke="none"/>
    </g>
    <g text-rendering="geometricPrecision" visibility="{{ uplift.visibility }}" stroke-miterlimit="1.45" shape-rendering="geometricPrecision" transform="matrix(1,0,0,1,-632,-165)" stroke-linecap="butt">
      <circle fill="none" r="15" clip-path="url(#clipPath2)" cx="841.64" cy="250.1265"/>
      <text x="841.64" xml:space="preserve" y="254.8403" clip-path="url(#clipPath2)" font-family="sans-serif" text-anchor="middle" stroke="none">{{ uplift.beta }}</text>
    </g>
    <g fill="rgb(153,204,0)" text-rendering="geometricPrecision" shape-rendering="geometricPrecision" transform="matrix(1,0,0,1,-632,-165)" stroke="rgb(153,204,0)">
      <circle r="15" clip-path="url(#clipPath2)" cx="1253.7807" cy="413.456" stroke="none"/>
    </g>
    <g text-rendering="geometricPrecision" stroke-miterlimit="1.45" shape-rendering="geometricPrecision" transform="matrix(1,0,0,1,-632,-165)" stroke-linecap="butt">
      <circle fill="none" r="15" clip-path="url(#clipPath2)" cx="1253.7807" cy="413.456"/>
      <text x="1242.1029" xml:space="preserve" y="418.1699" clip-path="url(#clipPath2)" font-family="sans-serif" stroke="none">6.23</text>
    </g>
    <g fill="rgb(153,204,0)" text-rendering="geometricPrecision" shape-rendering="geometricPrecision" transform="matrix(1,0,0,1,-632,-165)" stroke="rgb(153,204,0)">
      <circle r="15" clip-path="url(#clipPath2)" cx="1293.4647" cy="412.1748" stroke="none"/>
    </g>
    <g text-rendering="geometricPrecision" stroke-miterlimit="1.45" shape-rendering="geometricPrecision" transform="matrix(1,0,0,1,-632,-165)" stroke-linecap="butt">
      <circle fill="none" r="15" clip-path="url(#clipPath2)" cx="1293.4647" cy="412.1748"/>
      <text x="1281.787" xml:space="preserve" y="416.8887" clip-path="url(#clipPath2)" font-family="sans-serif" stroke="none">6.23</text>
    </g>
    <g fill="rgb(153,204,0)" text-rendering="geometricPrecision" shape-rendering="geometricPrecision" visibility="hidden" transform="matrix(1,0,0,1,-632,-165)" stroke="rgb(153,204,0)">
      <circle r="15" clip-path="url(#clipPath2)" cx="844.9517" cy="532.5" stroke="none"/>
    </g>
    <g text-rendering="geometricPrecision" stroke-miterlimit="1.45" visibility="visible" shape-rendering="geometricPrecision" transform="matrix(1,0,0,1,-632,-165)" stroke-linecap="butt">
      <circle fill="none" r="15" clip-path="url(#clipPath2)" cx="844.9517" cy="532.5"/>
      <text x="782.5962" xml:space="preserve" y="537.2139" clip-path="url(#clipPath2)" font-family="sans-serif" stroke="none">{{COMB.VAK.FOCUS}}</text>
    </g>
    <g fill="red" text-rendering="geometricPrecision" shape-rendering="geometricPrecision" transform="matrix(1,0,0,1,-632,-165)" stroke="red">
      <circle r="15" clip-path="url(#clipPath2)" cx="1633.4495" cy="504.5255" stroke="none"/>
    </g>
    <g text-rendering="geometricPrecision" stroke-miterlimit="1.45" shape-rendering="geometricPrecision" transform="matrix(1,0,0,1,-632,-165)" stroke-linecap="butt">
      <circle fill="none" r="15" clip-path="url(#clipPath2)" cx="1633.4495" cy="504.5255"/>
      <text x="1621.7717" xml:space="preserve" y="509.2394" clip-path="url(#clipPath2)" font-family="sans-serif" stroke="none">6.23</text>
    </g>
    <g fill="red" text-rendering="geometricPrecision" shape-rendering="geometricPrecision" transform="matrix(1,0,0,1,-632,-165)" stroke="red">
      <circle r="15" clip-path="url(#clipPath2)" cx="1839.6428" cy="506.5223" stroke="none"/>
    </g>
    <g text-rendering="geometricPrecision" stroke-miterlimit="1.45" shape-rendering="geometricPrecision" transform="matrix(1,0,0,1,-632,-165)" stroke-linecap="butt">
      <circle fill="none" r="15" clip-path="url(#clipPath2)" cx="1839.6428" cy="506.5223"/>
      <text x="1827.9651" xml:space="preserve" y="511.2361" clip-path="url(#clipPath2)" font-family="sans-serif" stroke="none">{{ vakken. }}</text>
    </g>
    <g fill="red" text-rendering="geometricPrecision" shape-rendering="geometricPrecision" transform="matrix(1,0,0,1,-632,-165)" stroke="red">
      <circle r="15" clip-path="url(#clipPath2)" cx="843.9229" cy="637.5" stroke="none"/>
    </g>
    <g text-rendering="geometricPrecision" stroke-miterlimit="1.45" shape-rendering="geometricPrecision" transform="matrix(1,0,0,1,-632,-165)" stroke-linecap="butt">
      <circle fill="none" r="15" clip-path="url(#clipPath2)" cx="843.9229" cy="637.5"/>
      <text x="832.2452" xml:space="preserve" y="642.2139" clip-path="url(#clipPath2)" font-family="sans-serif" stroke="none">6.23</text>
    </g>
    <g fill="rgb(153,204,0)" text-rendering="geometricPrecision" shape-rendering="geometricPrecision" transform="matrix(1,0,0,1,-632,-165)" stroke="rgb(153,204,0)">
      <circle r="15" clip-path="url(#clipPath2)" cx="1037.963" cy="337" stroke="none"/>
    </g>
    <g text-rendering="geometricPrecision" stroke-miterlimit="1.45" shape-rendering="geometricPrecision" transform="matrix(1,0,0,1,-632,-165)" stroke-linecap="butt">
      <circle fill="none" r="15" clip-path="url(#clipPath2)" cx="1037.963" cy="337"/>
      <text x="1026.2853" xml:space="preserve" y="341.7139" clip-path="url(#clipPath2)" font-family="sans-serif" stroke="none">6.23</text>
    </g>
    <g fill="rgb(153,204,0)" text-rendering="geometricPrecision" shape-rendering="geometricPrecision" transform="matrix(1,0,0,1,-632,-165)" stroke="rgb(153,204,0)">
      <circle r="15" clip-path="url(#clipPath2)" cx="1072.5107" cy="337" stroke="none"/>
    </g>
    <g text-rendering="geometricPrecision" stroke-miterlimit="1.45" shape-rendering="geometricPrecision" transform="matrix(1,0,0,1,-632,-165)" stroke-linecap="butt">
      <circle fill="none" r="15" clip-path="url(#clipPath2)" cx="1072.5107" cy="337"/>
      <text x="1060.8329" xml:space="preserve" y="341.7139" clip-path="url(#clipPath2)" font-family="sans-serif" stroke="none">6.23</text>
    </g>
    <g fill="rgb(153,204,0)" text-rendering="geometricPrecision" shape-rendering="geometricPrecision" transform="matrix(1,0,0,1,-632,-165)" stroke="rgb(153,204,0)">
      <circle r="15" clip-path="url(#clipPath2)" cx="1107.0584" cy="337" stroke="none"/>
    </g>
    <g text-rendering="geometricPrecision" stroke-miterlimit="1.45" shape-rendering="geometricPrecision" transform="matrix(1,0,0,1,-632,-165)" stroke-linecap="butt">
      <circle fill="none" r="15" clip-path="url(#clipPath2)" cx="1107.0584" cy="337"/>
      <text x="1095.3806" xml:space="preserve" y="341.7139" clip-path="url(#clipPath2)" font-family="sans-serif" stroke="none">6.23</text>
    </g>
    <g fill="rgb(153,204,0)" text-rendering="geometricPrecision" shape-rendering="geometricPrecision" transform="matrix(1,0,0,1,-632,-165)" stroke="rgb(153,204,0)">
      <circle r="15" clip-path="url(#clipPath2)" cx="1141.6061" cy="337" stroke="none"/>
    </g>
    <g text-rendering="geometricPrecision" stroke-miterlimit="1.45" shape-rendering="geometricPrecision" transform="matrix(1,0,0,1,-632,-165)" stroke-linecap="butt">
      <circle fill="none" r="15" clip-path="url(#clipPath2)" cx="1141.6061" cy="337"/>
      <text x="1129.9283" xml:space="preserve" y="341.7139" clip-path="url(#clipPath2)" font-family="sans-serif" stroke="none">6.23</text>
    </g>
    <g fill="rgb(153,204,0)" text-rendering="geometricPrecision" shape-rendering="geometricPrecision" transform="matrix(1,0,0,1,-632,-165)" stroke="rgb(153,204,0)">
      <circle r="15" clip-path="url(#clipPath2)" cx="1176.1538" cy="337" stroke="none"/>
    </g>
    <g text-rendering="geometricPrecision" stroke-miterlimit="1.45" shape-rendering="geometricPrecision" transform="matrix(1,0,0,1,-632,-165)" stroke-linecap="butt">
      <circle fill="none" r="15" clip-path="url(#clipPath2)" cx="1176.1538" cy="337"/>
      <text x="1164.4761" xml:space="preserve" y="341.7139" clip-path="url(#clipPath2)" font-family="sans-serif" stroke="none">6.23</text>
    </g>
    <g fill="rgb(153,204,0)" text-rendering="geometricPrecision" shape-rendering="geometricPrecision" transform="matrix(1,0,0,1,-632,-165)" stroke="rgb(153,204,0)">
      <circle r="15" clip-path="url(#clipPath2)" cx="968.8675" cy="381.3713" stroke="none"/>
    </g>
    <g text-rendering="geometricPrecision" stroke-miterlimit="1.45" shape-rendering="geometricPrecision" transform="matrix(1,0,0,1,-632,-165)" stroke-linecap="butt">
      <circle fill="none" r="15" clip-path="url(#clipPath2)" cx="968.8675" cy="381.3713"/>
      <text x="957.1898" xml:space="preserve" y="386.0852" clip-path="url(#clipPath2)" font-family="sans-serif" stroke="none">6.23</text>
    </g>
    <g fill="rgb(153,204,0)" text-rendering="geometricPrecision" shape-rendering="geometricPrecision" transform="matrix(1,0,0,1,-632,-165)" stroke="rgb(153,204,0)">
      <circle r="15" clip-path="url(#clipPath2)" cx="1003.4152" cy="381.3713" stroke="none"/>
    </g>
    <g text-rendering="geometricPrecision" stroke-miterlimit="1.45" shape-rendering="geometricPrecision" transform="matrix(1,0,0,1,-632,-165)" stroke-linecap="butt">
      <circle fill="none" r="15" clip-path="url(#clipPath2)" cx="1003.4152" cy="381.3713"/>
      <text x="991.7375" xml:space="preserve" y="386.0852" clip-path="url(#clipPath2)" font-family="sans-serif" stroke="none">6.23</text>
    </g>
    <g fill="rgb(153,204,0)" text-rendering="geometricPrecision" shape-rendering="geometricPrecision" transform="matrix(1,0,0,1,-632,-165)" stroke="rgb(153,204,0)">
      <circle r="15" clip-path="url(#clipPath2)" cx="1141.6061" cy="381.3713" stroke="none"/>
    </g>
    <g text-rendering="geometricPrecision" stroke-miterlimit="1.45" shape-rendering="geometricPrecision" transform="matrix(1,0,0,1,-632,-165)" stroke-linecap="butt">
      <circle fill="none" r="15" clip-path="url(#clipPath2)" cx="1141.6061" cy="381.3713"/>
      <text x="1129.9283" xml:space="preserve" y="386.0852" clip-path="url(#clipPath2)" font-family="sans-serif" stroke="none">6.23</text>
    </g>
    <g fill="rgb(153,204,0)" text-rendering="geometricPrecision" shape-rendering="geometricPrecision" transform="matrix(1,0,0,1,-632,-165)" stroke="rgb(153,204,0)">
      <circle r="15" clip-path="url(#clipPath2)" cx="1176.1538" cy="381.3713" stroke="none"/>
    </g>
    <g text-rendering="geometricPrecision" stroke-miterlimit="1.45" shape-rendering="geometricPrecision" transform="matrix(1,0,0,1,-632,-165)" stroke-linecap="butt">
      <circle fill="none" r="15" clip-path="url(#clipPath2)" cx="1176.1538" cy="381.3713"/>
      <text x="1164.4761" xml:space="preserve" y="386.0852" clip-path="url(#clipPath2)" font-family="sans-serif" stroke="none">6.23</text>
    </g>
    <g text-rendering="geometricPrecision" stroke-miterlimit="1.45" shape-rendering="geometricPrecision" transform="matrix(1,0,0,1,-632,-165)" stroke-linecap="butt">
      <path fill="none" d="M1005.32 480 L1005.32 497.8357 L1000.57 494.9857 L1006.82 509.9857 L1013.07 494.9857 L1008.32 497.8357 L1008.32 480 Z" clip-path="url(#clipPath2)"/>
    </g>
    <g text-rendering="geometricPrecision" stroke-miterlimit="1.45" shape-rendering="geometricPrecision" transform="matrix(1,0,0,1,-632,-165)" stroke-linecap="butt">
      <path fill="none" d="M1456.6473 479.277 L1454.0189 480.723 L1464.6495 500.0475 L1464.6495 500.0475 L1459.114 499.8398 L1459.114 499.8398 L1471.8199 509.9701 L1470.0663 493.815 L1467.2781 498.6015 L1456.6473 479.277 Z" clip-path="url(#clipPath2)"/>
    </g>
    <g text-rendering="geometricPrecision" stroke-miterlimit="1.45" shape-rendering="geometricPrecision" transform="matrix(1,0,0,1,-632,-165)" stroke-linecap="butt">
      <path fill="none" d="M825.5 315 L825.5 332.8667 L820.75 330.0167 L827 345.0167 L833.25 330.0167 L828.5 332.8667 L828.5 315 Z" clip-path="url(#clipPath2)"/>
    </g>
    <g text-rendering="geometricPrecision" stroke-miterlimit="1.45" shape-rendering="geometricPrecision" transform="matrix(1,0,0,1,-632,-165)" stroke-linecap="butt">
      <path fill="none" d="M869.7168 314.9789 L869.4647 332.8484 L864.7554 329.9316 L864.7554 329.9316 L870.7932 345.0183 L877.2541 330.108 L872.4644 332.8907 L872.7166 315.0211 L869.7168 314.9789 Z" clip-path="url(#clipPath2)"/>
    </g>
    <g text-rendering="geometricPrecision" stroke-miterlimit="1.45" shape-rendering="geometricPrecision" transform="matrix(1,0,0,1,-632,-165)" stroke-linecap="butt">
      <path fill="none" d="M914.98 314.992 L914.8848 332.8589 L914.8848 332.8589 L910.1501 329.9836 L910.1501 329.9836 L916.3201 345.0167 L922.6499 330.0502 L917.8848 332.8748 L917.98 315.008 L914.98 314.992 Z" clip-path="url(#clipPath2)"/>
    </g>
    <g text-rendering="geometricPrecision" stroke-miterlimit="1.45" shape-rendering="geometricPrecision" transform="matrix(1,0,0,1,-632,-165)" stroke-linecap="butt">
      <path fill="none" d="M870.14 390 L870.14 407.8307 L865.39 404.9807 L871.64 419.9807 L877.89 404.9807 L873.14 407.8307 L873.14 390 Z" clip-path="url(#clipPath2)"/>
    </g>
    <g text-rendering="geometricPrecision" stroke-miterlimit="1.45" shape-rendering="geometricPrecision" transform="matrix(1,0,0,1,-632,-165)" stroke-linecap="butt">
      <path fill="none" d="M1072.64 390 L1072.64 407.8557 L1067.89 405.0056 L1074.14 420.0056 L1080.39 405.0056 L1075.64 407.8557 L1075.64 390 Z" clip-path="url(#clipPath2)"/>
    </g>
    <g text-rendering="geometricPrecision" stroke-miterlimit="1.45" shape-rendering="geometricPrecision" transform="matrix(1,0,0,1,-632,-165)" stroke-linecap="butt">
      <path fill="none" d="M1170.3199 585 L1170.3199 602.856 L1165.5699 600.006 L1171.8199 615.006 L1178.0699 600.006 L1173.3199 602.856 L1173.3199 585 Z" clip-path="url(#clipPath2)"/>
    </g>
    <g text-rendering="geometricPrecision" stroke-miterlimit="1.45" shape-rendering="geometricPrecision" transform="matrix(1,0,0,1,-632,-165)" stroke-linecap="butt">
      <path fill="none" d="M1688.8 585 L1688.8 602.8403 L1684.05 599.9904 L1690.3 614.9904 L1696.55 599.9904 L1691.8 602.8403 L1691.8 585 Z" clip-path="url(#clipPath2)"/>
    </g>
    <g text-rendering="geometricPrecision" stroke-miterlimit="1.45" shape-rendering="geometricPrecision" transform="matrix(1,0,0,1,-632,-165)" stroke-linecap="butt">
      <path fill="none" d="M1892.28 585 L1892.28 602.856 L1887.53 600.006 L1893.78 615.006 L1900.03 600.006 L1895.28 602.856 L1895.28 585 Z" clip-path="url(#clipPath2)"/>
    </g>
    <g text-rendering="geometricPrecision" stroke-miterlimit="1.45" shape-rendering="geometricPrecision" transform="matrix(1,0,0,1,-632,-165)" stroke-linecap="butt">
      <path fill="none" d="M918.6689 808.75 L921.5189 813.5 L886.46 813.5 L886.46 816.5 L921.5189 816.5 L918.6689 821.25 L933.6689 815 L918.6689 808.75 Z" clip-path="url(#clipPath2)"/>
    </g>
    <g text-rendering="geometricPrecision" stroke-miterlimit="1.45" shape-rendering="geometricPrecision" transform="matrix(1,0,0,1,-632,-165)" stroke-linecap="butt">
      <path fill="none" d="M918.6689 891.25 L921.5189 896 L886.46 896 L886.46 899 L921.5189 899 L918.6689 903.75 L933.6689 897.5 L918.6689 891.25 Z" clip-path="url(#clipPath2)"/>
    </g>
    <g text-rendering="geometricPrecision" stroke-miterlimit="1.45" shape-rendering="geometricPrecision" transform="matrix(1,0,0,1,-632,-165)" stroke-linecap="butt">
      <path fill="none" d="M918.6689 966.25 L921.5189 971 L886.46 971 L886.46 974 L921.5189 974 L918.6689 978.75 L933.6689 972.5 L918.6689 966.25 Z" clip-path="url(#clipPath2)"/>
    </g>
    <g text-rendering="geometricPrecision" stroke-miterlimit="1.45" shape-rendering="geometricPrecision" transform="matrix(1,0,0,1,-632,-165)" stroke-linecap="butt">
      <path fill="none" d="M1216.9537 966.25 L1219.8037 971 L1184.4337 971 L1184.4337 974 L1219.8037 974 L1216.9537 978.75 L1231.9537 972.5 L1216.9537 966.25 Z" clip-path="url(#clipPath2)"/>
    </g>
    <g text-rendering="geometricPrecision" stroke-miterlimit="1.45" shape-rendering="geometricPrecision" transform="matrix(1,0,0,1,-632,-165)" stroke-linecap="butt">
      <path fill="none" d="M918.6689 1041.25 L921.5189 1046 L886.46 1046 L886.46 1049 L921.5189 1049 L918.6689 1053.75 L933.6689 1047.5 L918.6689 1041.25 Z" clip-path="url(#clipPath2)"/>
    </g>
    <g text-rendering="geometricPrecision" stroke-miterlimit="1.45" shape-rendering="geometricPrecision" transform="matrix(1,0,0,1,-632,-165)" stroke-linecap="butt">
      <path fill="none" d="M1216.9537 1041.25 L1219.8037 1046 L1184.4337 1046 L1184.4337 1049 L1219.8037 1049 L1216.9537 1053.75 L1231.9537 1047.5 L1216.9537 1041.25 Z" clip-path="url(#clipPath2)"/>
    </g>
    <g text-rendering="geometricPrecision" stroke-miterlimit="1.45" shape-rendering="geometricPrecision" transform="matrix(1,0,0,1,-632,-165)" stroke-linecap="butt">
      <path fill="none" d="M918.6689 1116.25 L921.5189 1121 L886.46 1121 L886.46 1124 L921.5189 1124 L918.6689 1128.75 L933.6689 1122.5 L918.6689 1116.25 Z" clip-path="url(#clipPath2)"/>
    </g>
    <g text-rendering="geometricPrecision" stroke-miterlimit="1.45" shape-rendering="geometricPrecision" transform="matrix(1,0,0,1,-632,-165)" stroke-linecap="butt">
      <path fill="none" d="M1216.9537 1116.25 L1219.8037 1121 L1184.4337 1121 L1184.4337 1124 L1219.8037 1124 L1216.9537 1128.75 L1231.9537 1122.5 L1216.9537 1116.25 Z" clip-path="url(#clipPath2)"/>
    </g>
  </g>
</svg>
